<svg xmlns="http://www.w3.org/2000/svg" x="0px" y="0px" className="homeIcon" viewBox="13.4089994430542 12.108497619628906 37.18299865722656 39.78250503540039" enable-background="new 0 0 64 64">
<g>
	
		<path fill="#FFFFFF" stroke="#000000" stroke-width="1" stroke-linecap="round" stroke-linejoin="round" stroke-miterlimit="10" d="   M41.547,51.391H22.453c-4.719,0-8.544-3.825-8.544-8.544V27.842c0-2.787,1.359-5.399,3.642-6.998l9.547-6.689   c2.943-2.062,6.862-2.062,9.805,0l9.547,6.689c2.282,1.599,3.642,4.211,3.642,6.998v15.005   C50.091,47.566,46.266,51.391,41.547,51.391z"/>
</g>
<g>
	<path fill="none" stroke="#536DFE" stroke-width="1" stroke-linecap="round" stroke-linejoin="round" stroke-miterlimit="10" d="   M29.409,32h5.182C37.026,32,39,33.988,39,36.441v14.95h-5h-9v-14.95C25,33.988,26.974,32,29.409,32z"/>
	
		<line fill="none" stroke="#536DFE" stroke-width="1" stroke-linecap="round" stroke-linejoin="round" stroke-miterlimit="10" x1="26.909" y1="23.25" x2="37.25" y2="23.25"/>
</g>
</svg>